<svg width="512" height="512" viewBox="0 0 512 512" fill="none" xmlns="http://www.w3.org/2000/svg">
<g clip-path="url(#clip0_340_1031)">
<path d="M256 486.4C383.246 486.4 486.4 383.246 486.4 256C486.4 128.754 383.246 25.6 256 25.6C128.754 25.6 25.6 128.754 25.6 256C25.6 383.246 128.754 486.4 256 486.4Z" fill="white"/>
<path d="M256 0C114.615 0 0 114.615 0 256C0 397.385 114.615 512 256 512C397.385 512 512 397.385 512 256C512 114.615 397.385 0 256 0ZM256 51.2C369.108 51.2 460.8 142.892 460.8 256C460.8 369.108 369.108 460.8 256 460.8C142.892 460.8 51.2 369.108 51.2 256C51.2 142.892 142.892 51.2 256 51.2Z" fill="#3C790A"/>
<path d="M174.08 281.6C215.886 256.115 250.995 221.006 276.48 179.2C275.632 148.567 289.844 122.587 308.224 121.173C326.604 119.759 342.192 143.447 343.04 174.08C373.673 174.928 397.36 190.516 395.947 208.896C394.533 227.276 368.553 241.488 337.92 240.64C296.114 266.125 261.005 301.234 235.52 343.04C236.069 362.856 230.233 381.655 220.21 392.356C210.188 403.056 197.501 404.032 186.93 394.916C176.359 385.799 169.509 367.976 168.96 348.16C138.327 347.312 114.639 331.724 116.053 313.344C117.467 294.964 143.447 280.752 174.08 281.6Z" fill="#3C790A"/>
</g>
<defs>
<clipPath id="clip0_340_1031">
<rect width="512" height="512" fill="white"/>
</clipPath>
</defs>
</svg>
